Coordinates
version=1
nRows=7
nColumns=42
inDegrees=yes

Units are S.I. units (second, meters, Newtons, ...)
If the header above contains a line with 'inDegrees', this indicates whether rotational values are in degrees (yes) or radians (no).

endheader
time	pelvis_tilt	pelvis_list	pelvis_rotation	pelvis_tx	pelvis_ty	pelvis_tz	hip_flexion_r	hip_adduction_r	hip_rotation_r	knee_angle_r	knee_adduction_r	knee_angle_r_beta	ankle_angle_r	subtalar_angle_r	mtp_angle_r	hip_flexion_l	hip_adduction_l	hip_rotation_l	knee_angle_l	knee_adduction_l	knee_angle_l_beta	ankle_angle_l	subtalar_angle_l	mtp_angle_l	lumbar_extension	lumbar_bending	lumbar_rotation	arm_flex_r	arm_add_r	arm_rot_r	elbow_flex_r	pro_sup_r	wrist_flex_r	wrist_dev_r	arm_flex_l	arm_add_l	arm_rot_l	elbow_flex_l	pro_sup_l	wrist_flex_l	wrist_dev_l
      1.80000000	     -3.21903188	     -5.67087041	      1.17185898	      0.73089782	      0.84904049	     -0.37025203	     18.82600836	      5.45567413	     -1.67382992	     18.89349180	      6.95092695	      0.32975364	      1.28019199	    -10.93675973	     -7.51499049	      8.34595601	    -12.43380842	     -1.33926440	     63.28323369	     10.04144865	      1.10450079	     -4.76897068	    -17.82669948	     -7.51499049	     -5.01548564	      8.23356988	     -2.37008791	     -6.04791378	    -12.79805204	     -4.72152710	     24.37053701	     90.00000001	      0.00000000	      0.00000000	     -7.40616521	     -9.65855778	    -11.44130369	     43.91868234	     90.00000001	      0.00000000	      0.00000000
      1.81000000	     -3.54065158	     -5.86815087	      1.08080629	      0.74288390	      0.85029944	     -0.36991090	     17.86569759	      5.74583097	     -1.56518065	     18.07133531	      6.96461500	      0.31540430	      2.24931709	    -10.14549903	     -7.51463330	     10.80584775	    -12.65596203	     -1.63668382	     65.59535868	      9.05562767	      1.14485498	     -3.59865563	    -18.07710974	     -7.51463330	     -4.59035087	      8.39095208	     -1.88935281	     -5.72567124	    -12.99804451	     -4.25506688	     24.31014220	     90.00000001	      0.00000000	      0.00000000	     -7.23262434	     -9.33636955	    -11.69459587	     42.12656149	     90.00000001	      0.00000000	      0.00000000
      1.82000000	     -3.34051426	     -5.54766989	      0.75810586	      0.75440022	      0.85214211	     -0.36920471	     16.59708600	      5.56465658	     -1.80603107	     17.79430656	      6.82654777	      0.31056924	      2.61421850	     -9.65916312	     -7.51445774	     12.47745164	    -12.42835555	     -1.67149504	     67.26875371	      8.88137508	      1.17406124	     -2.76319269	    -17.95229471	     -7.51445774	     -4.97983828	      7.86845229	     -1.06169527	     -5.23307335	    -13.01238730	     -4.06193604	     24.50231158	     90.00000001	      0.00000000	      0.00000000	     -7.23792172	     -9.25649088	    -11.79647298	     41.54944758	     90.00000001	      0.00000000	      0.00000000
      1.83000000	     -3.73715485	     -5.72028866	      0.75281993	      0.76577899	      0.85313529	     -0.36905472	     15.67027023	      5.79681347	     -1.71542579	     16.77302899	      6.82788498	      0.29274458	      3.55431977	     -8.46420986	     -7.51401162	     15.09655136	    -12.44893334	     -1.71609909	     68.86087560	      7.94446875	      1.20184901	     -0.97780696	    -18.06324645	     -7.51401162	     -4.52968230	      7.99696183	     -0.73151879	     -4.76590302	    -13.27355047	     -3.26948758	     24.60003371	     90.00000001	      0.00000000	      0.00000000	     -6.87156252	     -8.91796319	    -12.38564254	     39.45378989	     90.00000001	      0.00000000	      0.00000000
      1.84000000	     -3.81463302	     -5.58887759	      0.65999826	      0.77703293	      0.85435696	     -0.36878277	     14.57024198	      5.70840064	     -2.06331404	     16.15390094	      6.75676435	      0.28193876	      4.25713643	     -7.37502087	     -7.51331657	     17.19692630	    -12.20459428	     -1.60157694	     69.89473205	      7.55037566	      1.21989320	      0.49831290	    -17.97198377	     -7.51331657	     -4.52385141	      7.72521890	     -0.27261393	     -4.25200169	    -13.48613017	     -2.38059342	     24.86417497	     90.00000001	      0.00000000	      0.00000000	     -6.70303018	     -8.72101481	    -12.92676451	     38.19846500	     90.00000001	      0.00000000	      0.00000000
      1.85000000	     -3.83168711	     -5.34695401	      0.59326104	      0.78812484	      0.85551477	     -0.36863971	     13.37699697	      5.48189350	     -2.24032832	     15.45712054	      6.74811386	      0.26977765	      4.85859176	     -6.65497614	     -7.51308303	     19.18194077	    -11.76089524	     -1.56845361	     70.49380994	      7.12210526	      1.23034909	      1.90079858	    -17.99207287	     -7.51308303	     -4.61153928	      7.33346047	      0.14388592	     -3.59402212	    -13.58977706	     -2.12879478	     25.10171467	     90.00000001	      0.00000000	      0.00000000	     -6.62522860	     -8.66379880	    -13.00956526	     37.19610687	     90.00000001	      0.00000000	      0.00000000
      1.86000000	     -3.85430426	     -5.14581711	      0.52172305	      0.79930056	      0.85647253	     -0.36851639	     12.18820389	      5.27723296	     -2.70527075	     14.75859129	      6.69805160	      0.25758601	      5.63728255	     -5.08465686	     -7.51219828	     21.08596832	    -11.37408890	     -1.35334382	     70.68899738	      6.98136044	      1.23375575	      3.26453401	    -17.75447342	     -7.51219828	     -4.65521069	      6.98594886	      0.50680983	     -2.98395443	    -13.82331921	     -1.21248054	     25.44485102	     90.00000001	      0.00000000	      0.00000000	     -6.38726637	     -8.46301966	    -13.81589233	     35.77138447	     90.00000001	      0.00000000	      0.00000000
